<?xml version="1.0" encoding="UTF-8" standalone="no"?>
<svg
   xmlns:dc="http://purl.org/dc/elements/1.1/"
   xmlns:cc="http://creativecommons.org/ns#"
   xmlns:rdf="http://www.w3.org/1999/02/22-rdf-syntax-ns#"
   xmlns:svg="http://www.w3.org/2000/svg"
   xmlns="http://www.w3.org/2000/svg"
   xmlns:sodipodi="http://sodipodi.sourceforge.net/DTD/sodipodi-0.dtd"
   xmlns:inkscape="http://www.inkscape.org/namespaces/inkscape"
   viewBox="0 0 800 600"
   id="svg2"
   version="1.1"
   inkscape:version="0.48.3.1 r9886"
   width="100%"
   height="100%"
   sodipodi:docname="java.svg">
  <title
     id="title3842">Logo Amazon Corretto</title>
  <metadata
     id="metadata32">
    <rdf:RDF>
      <cc:Work
         rdf:about="">
        <dc:format>image/svg+xml</dc:format>
        <dc:type
           rdf:resource="http://purl.org/dc/dcmitype/StillImage" />
        <dc:title>Logo Amazon Corretto</dc:title>
        <dc:date>2019-03-22</dc:date>
        <dc:creator>
          <cc:Agent>
            <dc:title>Jens Boettge</dc:title>
          </cc:Agent>
        </dc:creator>
        <dc:rights>
          <cc:Agent>
            <dc:title>CC BY-NC-SA 4.0</dc:title>
          </cc:Agent>
        </dc:rights>
        <cc:license
           rdf:resource="http://creativecommons.org/licenses/by-nc-sa/3.0/" />
      </cc:Work>
      <cc:License
         rdf:about="http://creativecommons.org/licenses/by-nc-sa/3.0/">
        <cc:permits
           rdf:resource="http://creativecommons.org/ns#Reproduction" />
        <cc:permits
           rdf:resource="http://creativecommons.org/ns#Distribution" />
        <cc:requires
           rdf:resource="http://creativecommons.org/ns#Notice" />
        <cc:requires
           rdf:resource="http://creativecommons.org/ns#Attribution" />
        <cc:prohibits
           rdf:resource="http://creativecommons.org/ns#CommercialUse" />
        <cc:permits
           rdf:resource="http://creativecommons.org/ns#DerivativeWorks" />
        <cc:requires
           rdf:resource="http://creativecommons.org/ns#ShareAlike" />
      </cc:License>
    </rdf:RDF>
  </metadata>
  <defs
     id="defs30" />
  <sodipodi:namedview
     pagecolor="#ffffff"
     bordercolor="#666666"
     borderopacity="1"
     objecttolerance="10"
     gridtolerance="10"
     guidetolerance="10"
     inkscape:pageopacity="0"
     inkscape:pageshadow="2"
     inkscape:window-width="1574"
     inkscape:window-height="975"
     id="namedview28"
     showgrid="false"
     inkscape:zoom="0.99980013"
     inkscape:cx="380.57852"
     inkscape:cy="267.7054"
     inkscape:window-x="2518"
     inkscape:window-y="88"
     inkscape:window-maximized="0"
     inkscape:current-layer="svg2" />
  <g
     id="g3827">
    <path
       sodipodi:nodetypes="scssccssscsssssccssssccccc"
       inkscape:connector-curvature="0"
       d="m 504.19454,236.19584 c -36.28882,0 -69.12057,9.01037 -93.06548,23.6551 -11.97113,7.32213 -21.72564,16.03319 -28.60024,25.97472 -6.87459,9.94153 -10.96087,21.33595 -10.96087,33.67283 0,4.8452 0.6518,9.54434 1.83531,14.07071 1.17393,27.93909 5.54421,52.85781 12.38833,74.63591 -14.50991,8.67425 -24.15774,17.66623 -32.37281,29.13554 -8.32169,11.61811 -13.10502,24.99724 -12.43932,39.45915 0.66568,14.4619 6.6725,27.45609 16.03346,38.41405 9.36095,10.95794 22.24461,20.2948 37.82777,27.93748 31.16766,15.28528 73.20281,23.74092 119.14217,22.02372 45.93934,-1.71722 87.0667,-13.28536 116.72058,-30.8434 14.82695,-8.77903 26.82959,-19.02135 35.15127,-30.63947 8.32167,-11.61812 13.10501,-25.02274 12.43932,-39.48464 -0.6657,-14.46191 -6.67252,-27.45609 -16.03347,-38.41405 -8.94748,-10.47395 -21.12296,-19.47088 -35.78853,-26.91787 5.69124,-21.27255 9.18236,-45.30622 9.89028,-71.98491 0.32512,-2.4185 0.48431,-4.89311 0.48431,-7.39222 0,-12.33688 -4.08615,-23.7313 -10.96087,-33.67283 -6.87474,-9.94153 -16.62911,-18.65274 -28.60024,-25.97472 -23.94225,-14.64394 -56.80014,-23.6551 -93.09097,-23.6551 z M 624.4328,397.85601 c -0.056,-0.0275 -0.0746,-0.0118 -0.10197,-0.0255 -0.0347,0.005 0.133,0.0418 0.10197,0.0255 z m 1.5804,5.25102 c -26.04861,271.14454 -13.0243,135.57227 0,0 z"
       style="fill:#e9e900;fill-opacity:1;fill-rule:evenodd"
       id="path8-6" />
    <path
       d="m 388.23396,411.53299 c -14.32302,8.48058 -23.56348,17.00647 -30.97728,27.35739 -7.4138,10.35091 -13.43765,26.623 -12.96899,36.79423 0.46864,10.17123 4.80628,21.27841 13.14606,31.04024 8.33978,9.76185 23.98619,21.5917 39.03946,28.9746 30.10721,14.76582 73.75193,23.10422 119.04556,21.41122 45.29363,-1.69299 88.93636,-17.25101 117.58105,-34.21216 14.32301,-8.48058 23.48425,-18.26977 30.89805,-28.61991 7.4138,-10.35013 8.56945,-20.67293 8.1008,-30.84494 -0.46864,-10.172 0.29357,-20.47917 -8.04554,-30.24101 -8.33912,-9.76185 -22.23675,-23.73547 -37.29069,-31.11838 -1.6109,-0.79009 0.0752,-1.02001 -1.13953,-3.31012 1.33178,-1.16392 -1.28087,-2.33925 -0.44295,-1.92831 15.58317,7.64268 28.46895,16.96663 37.8299,27.92459 9.36096,10.95795 15.3788,23.95187 16.0445,38.41378 0.66569,14.4619 -4.13741,27.86052 -12.45908,39.47864 -8.32167,11.61812 -20.3069,21.87216 -35.13385,30.65118 -29.65388,17.55804 -70.7763,29.12929 -116.71564,30.84651 -45.93935,1.7172 -87.98441,-6.74627 -119.15208,-22.03155 -15.58316,-7.64268 -28.46895,-16.96663 -37.8299,-27.92458 -9.36095,-10.95796 -15.3788,-23.95188 -16.04448,-38.41379 -0.66569,-14.46191 4.1374,-27.86052 12.45908,-39.47863 8.32166,-11.61813 18.10014,-20.68622 32.92708,-29.46524"
       id="path8"
       inkscape:connector-curvature="0"
       style="fill:#000000;fill-rule:evenodd" />
    <path
       d="m 636.86297,315.18016 -262.66179,0.52271 h -0.38402 v 0.52271 c -0.36039,130.17358 66.6024,200.19792 132.55244,200.08855 65.95003,-0.10937 130.88154,-70.3517 130.88154,-200.60418 v -0.52271 h -0.384 z m -0.38402,1.04541 C 636.3005,445.64914 569.75006,500.97799 504.26602,501.08736 438.77598,501.19746 374.39631,446.10461 374.58271,316.74901 l 261.89624,-0.52271 z"
       id="path10"
       inkscape:connector-curvature="0"
       style="fill:#000000" />
    <path
       d="m 504.95625,235.17912 c -36.28882,0 -69.13869,8.98527 -93.0836,23.63 -11.97113,7.32213 -21.71751,16.04318 -28.59211,25.98472 -6.8746,9.94152 -10.96925,21.35105 -10.96925,33.68793 0,12.33689 4.09453,23.74641 10.96925,33.68794 6.87473,9.94154 16.62098,18.66274 28.59211,25.98472 23.94225,14.64394 56.79278,23.63 93.0836,23.63 36.29083,0 69.13869,-8.98528 93.08361,-23.63 11.97112,-7.32213 21.71751,-16.04318 28.5921,-25.98472 6.8746,-9.94153 10.96926,-21.35105 10.96926,-33.68794 0,-12.33688 -4.09453,-23.74641 -10.96926,-33.68793 -6.87473,-9.94154 -16.62098,-18.66274 -28.5921,-25.98472 -23.94225,-14.64394 -56.79278,-23.63 -93.08361,-23.63 z m 0,6.58594 c 35.94333,0 68.473,8.96184 91.86539,23.27062 11.69686,7.15416 21.10641,15.6674 27.46775,24.86674 6.36135,9.19933 9.59793,18.82602 9.59793,28.57928 0,9.75325 -3.23637,19.37915 -9.59793,28.57927 -6.36154,9.20012 -15.77155,17.71274 -27.46775,24.86674 -23.39306,14.308 -55.92405,23.27061 -91.86539,23.27061 -35.94134,0 -68.47299,-8.96183 -91.86539,-23.27061 -11.69685,-7.15416 -21.1064,-15.6674 -27.46775,-24.86674 -6.36134,-9.19933 -9.59793,-18.82602 -9.59793,-28.57927 0,-9.75326 3.23639,-19.37995 9.59793,-28.57928 6.36154,-9.19934 15.77156,-17.71274 27.46775,-24.86674 23.39306,-14.308 55.92405,-23.27062 91.86539,-23.27062 z"
       id="path12"
       inkscape:connector-curvature="0"
       style="fill:#000000;fill-rule:evenodd" />
    <path
       d="m 373.13445,304.81855 c -47.62569,-25.68451 -58.19921,-1.77614 -51.63706,25.42343 1.75466,7.27316 4.73446,14.78161 8.55868,21.64009 10.92871,19.59912 31.96134,51.98499 53.20634,58.56363 0.5328,-1.02049 0.0279,-0.15267 -0.10155,-0.63409 -39.04112,-12.2724 -76.92186,-119.37069 -7.43306,-77.06135 0.36343,0.23516 -2.31852,-27.43236 -2.59327,-27.93185 z"
       id="path14"
       inkscape:connector-curvature="0"
       style="fill:#000000;stroke:#000000;stroke-width:2.41910005;stroke-miterlimit:4;stroke-dasharray:none" />
    <path
       d="m 632.58517,320.9942 c 0,39.21946 -56.67951,71.01348 -126.59809,71.01348 -69.91856,0 -126.59808,-31.79402 -126.59808,-71.01348 0,-39.21945 56.67952,-71.01348 126.59808,-71.01348 69.91858,0 126.59809,31.79403 126.59809,71.01348 z"
       id="path16"
       inkscape:connector-curvature="0"
       style="fill:#af753d;fill-rule:evenodd;stroke:#000000;stroke-width:2.25044155" />
    <path
       d="m 504.14536,330.55391 c 4.86098,1.4863 -1.86853,4.01787 -5.2609,4.04981 -9.19321,0.0867 -12.98126,-5.24357 -10.89776,-8.99078 3.72697,-6.70241 19.78857,-9.33772 31.94138,-7.20884 17.83465,3.1242 23.95209,13.73922 16.53414,22.03059 -9.88749,11.05176 -37.5301,15.07976 -58.62233,10.36788 -26.54206,-5.92991 -35.18476,-22.32848 -22.17178,-35.07116 15.76204,-15.43338 55.35053,-20.88349 85.30327,-13.52652 35.29683,8.66974 46.48531,30.93693 27.80785,48.11175 -21.56414,19.82947 -73.19781,26.70855 -111.98264,16.68592 -44.07052,-11.38826 -57.81424,-39.55275 -33.44391,-61.15234 27.33909,-24.23138 91.05456,-32.5423 138.66359,-19.84458 52.85526,14.09654 69.15424,48.17308 39.08155,74.19292"
       id="path18"
       inkscape:connector-curvature="0"
       style="fill:none;stroke:#784421;stroke-width:5.27681303" />
    <path
       sodipodi:nodetypes="ccccccc"
       inkscape:connector-curvature="0"
       id="path3792"
       d="m 560.72325,286.71256 c -25.91853,-52.12537 27.44201,-83.40192 46.15179,-110.7643 14.98179,-12.14016 6.25726,-10.28196 59.99734,-34.61386 -48.65501,2.13892 -70.70157,18.90222 -113.0719,53.07457 -9.42486,11.48164 -49.10616,31.72936 -24.80659,93.45738 10.96106,12.69174 -7.49966,28.26797 -10.96104,46.72869 22.48388,-8.16516 44.35256,-28.7483 42.6904,-47.88248 z"
       style="fill:#cccccc;stroke:#999999;stroke-width:0.81569308px;stroke-linecap:butt;stroke-linejoin:miter;stroke-opacity:1" />
    <path
       sodipodi:nodetypes="cccsccscc"
       inkscape:connector-curvature="0"
       id="path3794"
       d="m 493.22627,336.90263 c -18.46072,-36.34454 -33.46006,-53.65147 -42.11352,-84.80393 5.76897,-51.34386 43.83403,-56.69712 81.91944,-89.99599 14.61106,-25.38348 18.05313,-48.7225 15.03696,-70.704049 -3.01617,-21.981549 -20.17887,-43.759425 -29.4594,-56.790275 13.84554,54.228355 23.70594,59.022985 -5.76898,108.456714 -15.28778,12.98019 -32.40734,14.94201 -58.48297,37.64255 -11.5905,10.09029 -41.32028,34.75807 -36.7051,59.27621 15.57623,50.19008 25.96039,58.26664 75.57357,96.91877 z"
       style="fill:#cccccc;stroke:#999999;stroke-width:0.81569308px;stroke-linecap:butt;stroke-linejoin:miter;stroke-opacity:1" />
    <text
       transform="matrix(0,-1.0792822,0.92654173,0,0,0)"
       sodipodi:linespacing="125%"
       id="text3796"
       y="296.10333"
       x="-524.1969"
       style="font-size:120px;font-style:normal;font-weight:normal;line-height:125%;letter-spacing:0px;word-spacing:0px;fill:#000000;fill-opacity:1;stroke:none;font-family:Sans"
       xml:space="preserve"><tspan
         id="tspan3004"
         style="font-size:120px;font-style:normal;font-variant:normal;font-weight:normal;font-stretch:normal;fill:#ff0000;font-family:'36 days ago Thick BRK';-inkscape-font-specification:'36 days ago Thick BRK'"
         y="296.10333"
         x="-524.1969"
         sodipodi:role="line">Corretto</tspan></text>
    <text
       transform="matrix(0,-1.0792822,0.92654173,0,0,0)"
       sodipodi:linespacing="125%"
       id="text3796-3"
       y="398.83691"
       x="-213.13452"
       style="font-size:100px;font-style:normal;font-weight:normal;line-height:125%;letter-spacing:0px;word-spacing:0px;fill:#000000;fill-opacity:1;stroke:none;font-family:Sans"
       xml:space="preserve"><tspan
         id="tspan3004-6"
         style="font-size:100px;font-style:normal;font-variant:normal;font-weight:normal;font-stretch:normal;fill:#ff0000;font-family:'36 days ago Thick BRK';-inkscape-font-specification:'36 days ago Thick BRK'"
         y="398.83691"
         x="-213.13452"
         sodipodi:role="line">JDK</tspan></text>
  </g>
</svg>
